<svg xmlns="http://www.w3.org/2000/svg" viewBox="0 0 510.61 130.41"><path d="M151 66.76c-2.29-1.21-4.52-1.82-6.68-1.82-1.62 0-2.95.34-3.98 1.01-1.04.68-1.55 1.64-1.55 2.9.54.99 2.84 1.76 6.89 2.29 2.16.27 4.41.41 6.75.41 1.98 0 3.42-.04 4.32-.14-1.54-1.89-3.46-3.44-5.75-4.65zm117.78-2.5c-1.8 0-3.31.43-4.52 1.28-1.21.86-1.78 1.96-1.69 3.31.81 1.08 3.69 1.62 8.64 1.62 3.06 0 6.25-.31 9.58-.95-1.53-1.53-3.4-2.77-5.6-3.71-2.2-.94-4.34-1.46-6.41-1.55z" style="fill:none"/><path d="M62.1 63.99c4.05-2.79 11.48-5.44 22.27-7.96.36-1.89.54-5.08.54-9.59 0-6.48-.32-10.98-.94-13.5-7.92 1.35-15.19 4.23-21.8 8.64-6.61 4.41-11.86 9.43-15.73 15.05-3.87 5.62-5.81 10.78-5.81 15.46 0 2.07 1.1 4.05 3.31 5.94 2.2 1.89 6.64 4.5 13.3 7.83-3.6 2.79-7.4 4.91-11.41 6.35-4.01 1.44-7.49 2.16-10.46 2.16-4.5 0-7.83-1.33-9.99-3.98s-3.24-6.41-3.24-11.27c0-6.21 1.66-13.54 5-22L8.51 51.16C2.83 64.75 0 76.77 0 87.21c0 9.72 2.5 17.39 7.49 23.02 5 5.62 12.58 8.44 22.75 8.44 8.91 0 17.12-1.82 24.64-5.47 7.51-3.64 13.48-8.48 17.89-14.51 4.41-6.03 6.62-12.51 6.62-19.44-.01-4.95-5.77-10.04-17.29-15.26zm26.73 29.83c-4.14 8.82-8.37 16.42-12.69 22.82 1.89 2.34 5 4.9 9.32 7.69 4.23 2.88 7.92 4.9 11.07 6.08 1.17-1.89 3.08-5.42 5.74-10.6 2.65-5.18 5.24-11.05 7.76-17.62 4.05-10.62 6.84-20.38 8.37-29.29l-18.9-6.35c-2.79 9.18-6.35 18.27-10.67 27.27zm71.28-44.75c-3.06-3.1-6.8-4.66-11.21-4.66-3.69 0-7.4 1.51-11.14 4.52-3.74 3.02-6.82 6.84-9.25 11.47-2.43 4.64-3.65 9.16-3.65 13.57 0 4.95 1.8 9.07 5.4 12.35 3.6 3.29 8.05 5.51 13.37 6.68-3.78 5.67-9.45 12.42-17.01 20.25-.36.45-.74.85-1.15 1.21-.4.36-.74.72-1.01 1.08 2.16 2.43 5.38 5.06 9.65 7.9 4.27 2.84 7.85 4.79 10.73 5.87 5.67-6.75 10.94-15.03 15.79-24.84 4.86-9.81 7.51-19.62 7.97-29.43.27-4.68-.32-9.4-1.76-14.18-1.42-4.75-3.67-8.68-6.73-11.79zm-7.69 22.48c-2.34 0-4.59-.14-6.75-.41-4.05-.54-6.35-1.3-6.89-2.29 0-1.26.52-2.23 1.55-2.9 1.03-.67 2.36-1.01 3.98-1.01 2.16 0 4.39.61 6.68 1.82s4.21 2.77 5.74 4.66c-.89.08-2.33.13-4.31.13zm49 21.26c-.54-2.03-.81-5.2-.81-9.52 0-4.23.25-7.38.74-9.45.5-2.07 1.46-3.11 2.9-3.11-1.89 0-3.96-.18-6.21-.54.18-5.76.27-10.35.27-13.77 0-11.25-.4-23.58-1.21-36.99l-21.74 1.22.81 27.41c.54 26.01 1.22 40.63 2.02 43.88 3.15 1.35 7.04 2.34 11.68 2.97 4.63.63 9.43.94 14.38.94-1.35 0-2.29-1.01-2.83-3.04zm2.83 3.04h.01-.01zm39.83-3.04c-.54-2.03-.81-5.2-.81-9.52 0-4.23.25-7.38.74-9.45.5-2.07 1.46-3.11 2.9-3.11-4.32 0-7.31-.63-8.98-1.89-1.67-1.26-2.5-3.78-2.5-7.56 0-1.35.04-2.38.14-3.1l-11.48-1.76c-1.26 5.04-3.62 8.69-7.09 10.94-3.47 2.25-7.72 3.37-12.76 3.38 1.44 0 2.41 1.04 2.9 3.11.49 2.07.74 5.22.74 9.45 0 4.32-.27 7.49-.81 9.52-.54 2.03-1.48 3.04-2.83 3.04 4.95 0 9.33-.7 13.16-2.09 3.82-1.39 6.95-3.85 9.38-7.36h1.08c1.98 3.42 4.7 5.85 8.17 7.29 3.46 1.44 7.08 2.16 10.86 2.16-1.33-.01-2.27-1.02-2.81-3.05zm-25.11-50.08c3.06 2.12 5.54 3.53 7.43 4.25 1.62-1.08 3.62-3.31 6.01-6.68 2.38-3.38 3.4-5.74 3.04-7.09-.18-.9-1.15-2.14-2.9-3.71-1.75-1.57-3.64-2.9-5.67-3.98s-3.53-1.53-4.52-1.35c-1.08.18-2.34 1.1-3.78 2.77s-2.72 3.51-3.85 5.54c-1.13 2.02-1.82 3.62-2.09 4.79 1.15 1.52 3.27 3.34 6.33 5.46zm-11.88 50.08c.54-2.03.81-5.2.81-9.52 0-4.23-.25-7.38-.74-9.45-.5-2.07-1.46-3.11-2.9-3.11s-2.41 1.04-2.9 3.11c-.49 2.07-.74 5.22-.74 9.45 0 4.32.27 7.49.81 9.52.54 2.03 1.48 3.04 2.83 3.04s2.29-1.01 2.83-3.04zm56.02-61.56c3.06 2.12 5.54 3.53 7.42 4.25 1.62-1.08 3.62-3.31 6.01-6.68 2.38-3.38 3.4-5.74 3.04-7.09-.18-.9-1.15-2.14-2.9-3.71-1.75-1.57-3.65-2.9-5.67-3.98-2.03-1.08-3.53-1.53-4.52-1.35-1.08.18-2.34 1.1-3.78 2.77s-2.72 3.51-3.85 5.54c-1.13 2.02-1.82 3.62-2.09 4.79 1.17 1.52 3.28 3.35 6.34 5.46zm-16.2 64.6zm25.38-52.25c-4.23 0-8.03 1.37-11.41 4.12-3.38 2.75-6.05 6.23-8.03 10.46-1.98 4.23-3.06 8.42-3.24 12.55h-2.7c1.44 0 2.41 1.04 2.9 3.11.49 2.07.74 5.22.74 9.45 0 4.32-.27 7.49-.81 9.52-.54 2.03-1.48 3.04-2.83 3.04 9.18 0 16.85-.31 23.02-.94 6.16-.63 11.09-1.62 14.78-2.97 2.16-3.42 3.78-7.09 4.86-11s1.62-7.85 1.62-11.81c0-7.11-1.71-13.14-5.13-18.09-3.42-4.96-8.01-7.44-13.77-7.44zm-1.08 26.87c-4.95 0-7.83-.54-8.64-1.62-.09-1.35.47-2.45 1.69-3.31 1.21-.85 2.72-1.28 4.52-1.28 2.07.09 4.21.61 6.41 1.55 2.2.95 4.07 2.18 5.6 3.71-3.32.63-6.52.95-9.58.95zm-21.46 22.34c.54-2.03.81-5.2.81-9.52 0-4.23-.25-7.38-.74-9.45-.5-2.07-1.46-3.11-2.9-3.11s-2.41 1.04-2.9 3.11c-.49 2.07-.74 5.22-.74 9.45 0 4.32.27 7.49.81 9.52.54 2.03 1.49 3.04 2.83 3.04s2.29-1.01 2.83-3.04zM398.11.54l-.94-.54-32.27 14.04v9.99l33.21-12.69zm-37.8 30.51v21.73c7.02 4.41 13.27 10.49 18.76 18.22-3.33.27-6.88.41-10.67.41-13.14 0-27.59-1.17-43.33-3.51-2.7 7.92-4.55 16.11-5.54 24.57 13.59 2.79 27.09 4.19 40.5 4.19 7.56 0 14.53-.41 20.92-1.21 6.39-.81 11.56-1.8 15.53-2.97 1.53-4.59 2.29-9.18 2.29-13.77 0-10.98-4.01-22.41-12.01-34.29l18.63-5.81V16.33l-2.03-1.35-43.05 16.07zm115.42 61.76c-.54-2.03-.81-5.2-.81-9.52 0-4.23.25-7.38.74-9.45.5-2.07 1.46-3.11 2.9-3.11h-5.53c.09-.63.14-1.53.14-2.7 0-12.69-.63-28.89-1.89-48.6l-21.73 1.22.81 7.83c.72 7.38 1.42 14.78 2.09 22.21s1.1 13.88 1.28 19.37c-4.5.27-12.83.5-24.97.68 5.85-3.78 10.08-7.47 12.69-11.07-.63-5.13-1.78-11.38-3.44-18.76-1.67-7.38-3.8-14.67-6.41-21.87l-20.79 9.99c3.42 8.82 6.16 16.49 8.23 23.02 2.07 6.53 3.65 12.76 4.73 18.7h-7.42c.18 4.86 1.08 9.81 2.7 14.85 1.62 5.04 3.24 8.46 4.86 10.26 13.14 0 22.41-.25 27.81-.74 5.4-.49 9.67-1.82 12.82-3.98 4.14 3.15 8.82 4.72 14.04 4.72-1.36-.01-2.31-1.02-2.85-3.05zm2.84 3.04zm19.91 14.78c-1.75-1.58-3.64-2.9-5.67-3.98-2.02-1.08-3.53-1.53-4.52-1.35-1.08.18-2.34 1.1-3.78 2.77s-2.72 3.51-3.85 5.54c-1.13 2.02-1.82 3.62-2.09 4.79 1.17 1.53 3.28 3.35 6.34 5.47 3.06 2.11 5.54 3.53 7.42 4.25 1.62-1.08 3.62-3.31 6.01-6.68 2.38-3.38 3.4-5.74 3.04-7.09-.18-.91-1.15-2.15-2.9-3.72zm10.33-60.95-21.74 5c2.16 6.12 3.69 11.07 4.59 14.85-3.06.81-7.42 1.21-13.09 1.21 1.44 0 2.41 1.04 2.9 3.11.49 2.07.74 5.22.74 9.45 0 4.32-.27 7.49-.81 9.52-.54 2.03-1.48 3.04-2.83 3.04 9.9 0 18.94-1.3 27.13-3.91 1.8-2.88 3.17-6.48 4.12-10.8.94-4.32 1.42-8.91 1.42-13.77 0-6.68-.81-12.57-2.43-17.7zm-30.24 46.17zm2.83-3.04c.54-2.03.81-5.2.81-9.52 0-4.23-.25-7.38-.74-9.45-.5-2.07-1.46-3.11-2.9-3.11s-2.41 1.04-2.9 3.11c-.49 2.07-.74 5.22-.74 9.45 0 4.32.27 7.49.81 9.52.54 2.02 1.48 3.04 2.83 3.04s2.29-1.01 2.83-3.04z" style="fill:#2fac66"/></svg>